<svg width="512" height="512" viewBox="0 0 512 512" fill="none" xmlns="http://www.w3.org/2000/svg">
  <rect width="512" height="512" rx="112" fill="#050b14"/>
  <g transform="translate(131, 130) scale(6.76)">
    <path d="M0.00329968 22.8629V7.25881C0.224378 6.28848 0.82822 4.30519 2.58695 2.63989C3.65605 1.62694 4.85713 1.01064 6.01862 0.650044C8.43069 -0.100654 11.044 0.171433 13.3043 1.29256C18.6729 3.96098 24.0415 6.62613 29.4101 9.29455C32.8945 11.0254 35.5508 14.1102 36.5803 17.844C36.6166 17.9784 36.6529 18.1128 36.6859 18.2472C37.4085 21.1975 37.0059 23.6857 36.6859 25.0232C36.2635 26.1541 35.3858 28.0391 33.5842 29.747C29.9116 33.2251 25.2591 33.2513 24.0778 33.2382C21.6195 33.212 19.874 32.5465 16.8449 31.3893C14.1127 30.3469 12.519 29.3831 9.81655 27.8981C7.54307 26.6491 4.21699 24.8822 0 22.8661" fill="#1550FF"/>
    <path d="M0.00329968 37.8509V22.2469C0.224378 21.2765 0.82822 19.2932 2.58695 17.6279C3.65605 16.615 4.85713 15.9987 6.01862 15.6381C8.43069 14.8874 11.044 15.1595 13.3043 16.2806C18.6729 18.949 24.0415 21.6142 29.4101 24.2826C32.8945 26.0135 35.5508 29.0982 36.5803 32.832C36.6166 32.9664 36.6529 33.1008 36.6859 33.2352C37.4085 36.1856 37.0059 38.6737 36.6859 40.0112C36.2635 41.1422 35.3858 43.0271 33.5842 44.735C29.9116 48.2131 25.2591 48.2394 24.0778 48.2263C21.6195 48.2 19.874 47.5346 16.8449 46.3774C14.1127 45.3349 12.519 44.3711 9.81655 42.8861C7.54307 41.6372 4.21699 39.8702 0 37.8542" fill="#1481FF"/>
    <path d="M16.8494 31.3835C19.8785 32.5407 21.6273 33.2062 24.0823 33.2324C25.2669 33.2455 29.9194 33.2193 33.5887 29.7412C33.9615 29.3904 34.2915 29.0298 34.5885 28.6692C33.2686 26.8236 31.4901 25.3091 29.4146 24.2765C24.046 21.6081 18.6774 18.9429 13.3088 16.2745C11.0486 15.1534 8.4319 14.8813 6.02313 15.632C4.85835 15.9926 3.66056 16.6089 2.59146 17.6218C0.832733 19.2904 0.228891 21.2704 0.0078125 22.2407V22.857C4.22481 24.8731 7.55089 26.6368 9.82437 27.889C12.5235 29.374 14.1206 30.3378 16.8527 31.3803" fill="#0B1EFF"/>
  </g>
</svg>
