<svg width="140" height="49" viewBox="0 0 140 49" fill="none" xmlns="http://www.w3.org/2000/svg">
<path d="M0.00329968 22.8629V7.25881C0.224378 6.28848 0.82822 4.30519 2.58695 2.63989C3.65605 1.62694 4.85713 1.01064 6.01862 0.650044C8.43069 -0.100654 11.044 0.171433 13.3043 1.29256C18.6729 3.96098 24.0415 6.62613 29.4101 9.29455C32.8945 11.0254 35.5508 14.1102 36.5803 17.844C36.6166 17.9784 36.6529 18.1128 36.6859 18.2472C37.4085 21.1975 37.0059 23.6857 36.6859 25.0232C36.2635 26.1541 35.3858 28.0391 33.5842 29.747C29.9116 33.2251 25.2591 33.2513 24.0778 33.2382C21.6195 33.212 19.874 32.5465 16.8449 31.3893C14.1127 30.3469 12.519 29.3831 9.81655 27.8981C7.54307 26.6491 4.21699 24.8822 0 22.8661" fill="#1550FF"/>
<path d="M0.00329968 37.8509V22.2469C0.224378 21.2765 0.82822 19.2932 2.58695 17.6279C3.65605 16.615 4.85713 15.9987 6.01862 15.6381C8.43069 14.8874 11.044 15.1595 13.3043 16.2806C18.6729 18.949 24.0415 21.6142 29.4101 24.2826C32.8945 26.0135 35.5508 29.0982 36.5803 32.832C36.6166 32.9664 36.6529 33.1008 36.6859 33.2352C37.4085 36.1856 37.0059 38.6737 36.6859 40.0112C36.2635 41.1422 35.3858 43.0271 33.5842 44.735C29.9116 48.2131 25.2591 48.2394 24.0778 48.2263C21.6195 48.2 19.874 47.5346 16.8449 46.3774C14.1127 45.3349 12.519 44.3711 9.81655 42.8861C7.54307 41.6372 4.21699 39.8702 0 37.8542" fill="#1481FF"/>
<path d="M16.8494 31.3835C19.8785 32.5407 21.6273 33.2062 24.0823 33.2324C25.2669 33.2455 29.9194 33.2193 33.5887 29.7412C33.9615 29.3904 34.2915 29.0298 34.5885 28.6692C33.2686 26.8236 31.4901 25.3091 29.4146 24.2765C24.046 21.6081 18.6774 18.9429 13.3088 16.2745C11.0486 15.1534 8.4319 14.8813 6.02313 15.632C4.85835 15.9926 3.66056 16.6089 2.59146 17.6218C0.832733 19.2904 0.228891 21.2704 0.0078125 22.2407V22.857C4.22481 24.8731 7.55089 26.6368 9.82437 27.889C12.5235 29.374 14.1206 30.3378 16.8527 31.3803" fill="#0B1EFF"/>
<path d="M49.3826 5.82557H56.9829C58.2833 5.82557 59.2921 6.19176 60.0096 6.92414C60.742 7.65652 61.1081 8.62804 61.1081 9.83872C61.1081 10.4366 61.0259 10.9448 60.8615 11.3633C60.7121 11.7818 60.5028 12.1255 60.2338 12.3946C59.9797 12.6636 59.6733 12.8654 59.3146 12.9999C58.9708 13.1195 58.5971 13.1867 58.1936 13.2017V13.3362C58.5672 13.3362 58.9558 13.4035 59.3594 13.538C59.7779 13.6725 60.159 13.8892 60.5028 14.1882C60.8466 14.4721 61.1306 14.8458 61.3548 15.3092C61.5939 15.7725 61.7135 16.3405 61.7135 17.0131C61.7135 17.6259 61.6089 18.2088 61.3996 18.7618C61.2053 19.2999 60.9288 19.7707 60.5701 20.1743C60.2114 20.5778 59.7854 20.8992 59.2921 21.1383C58.7989 21.3625 58.2608 21.4746 57.6779 21.4746H49.3826V5.82557ZM52.7904 18.6049H56.7139C57.1623 18.6049 57.5135 18.4853 57.7676 18.2462C58.0366 17.9921 58.1712 17.6408 58.1712 17.1924V16.4301C58.1712 15.9818 58.0366 15.638 57.7676 15.3988C57.5135 15.1447 57.1623 15.0177 56.7139 15.0177H52.7904V18.6049ZM52.7904 12.2376H56.1758C56.6242 12.2376 56.9754 12.1106 57.2295 11.8565C57.4836 11.6024 57.6107 11.2512 57.6107 10.8028V10.1302C57.6107 9.68178 57.4836 9.33053 57.2295 9.07644C56.9754 8.82235 56.6242 8.6953 56.1758 8.6953H52.7904V12.2376ZM67.2286 21.4746C66.0926 21.4746 65.2556 21.1981 64.7176 20.6451C64.1944 20.0921 63.9329 19.2924 63.9329 18.2462V4.88393H67.251V18.8963H68.7307V21.4746H67.2286ZM77.4461 19.5017H77.334C77.2294 19.8006 77.0874 20.0846 76.908 20.3536C76.7436 20.6227 76.5269 20.8618 76.2578 21.0711C75.9888 21.2803 75.6674 21.4447 75.2938 21.5643C74.9351 21.6839 74.5166 21.7436 74.0383 21.7436C72.8276 21.7436 71.9084 21.3476 71.2806 20.5554C70.6678 19.7483 70.3614 18.5974 70.3614 17.1027V9.7042H73.6795V16.8113C73.6795 17.5287 73.8066 18.0817 74.0607 18.4704C74.3148 18.859 74.7482 19.0533 75.361 19.0533C75.6151 19.0533 75.8692 19.0159 76.1233 18.9412C76.3774 18.8664 76.6016 18.7618 76.7959 18.6273C76.9902 18.4778 77.1471 18.2985 77.2667 18.0892C77.3863 17.88 77.4461 17.6333 77.4461 17.3494V9.7042H80.7642V21.4746H77.4461V19.5017ZM88.5372 21.7436C87.6404 21.7436 86.8408 21.6017 86.1383 21.3177C85.4358 21.0187 84.838 20.6077 84.3447 20.0846C83.8664 19.5465 83.5002 18.8963 83.2462 18.1341C83.007 17.3718 82.8874 16.5198 82.8874 15.5782C82.8874 14.6515 83.007 13.8145 83.2462 13.0672C83.4853 12.3049 83.8365 11.6547 84.2999 11.1166C84.7782 10.5786 85.3611 10.1675 86.0486 9.88356C86.7362 9.58462 87.5209 9.43516 88.4027 9.43516C89.3742 9.43516 90.2038 9.59957 90.8913 9.92839C91.5938 10.2572 92.1618 10.6981 92.5952 11.2512C93.0436 11.8042 93.365 12.4469 93.5593 13.1793C93.7685 13.8967 93.8732 14.6515 93.8732 15.4437V16.4301H86.3177V16.6095C86.3177 17.3867 86.5269 18.007 86.9454 18.4704C87.3639 18.9187 88.0216 19.1429 88.9184 19.1429C89.6059 19.1429 90.1664 19.0084 90.5999 18.7394C91.0333 18.4554 91.4369 18.1191 91.8105 17.7305L93.4696 19.7931C92.9465 20.4059 92.2589 20.8842 91.407 21.228C90.57 21.5718 89.6134 21.7436 88.5372 21.7436ZM88.47 11.8789C87.7974 11.8789 87.2668 12.1031 86.8782 12.5515C86.5045 12.985 86.3177 13.5679 86.3177 14.3003V14.4796H90.4429V14.2778C90.4429 13.5604 90.2785 12.985 89.9497 12.5515C89.6358 12.1031 89.1426 11.8789 88.47 11.8789ZM96.1717 21.4746V5.82557H106.552V8.85224H99.5795V12.0583H105.521V15.0625H99.5795V21.4746H96.1717ZM112.179 21.4746C111.043 21.4746 110.206 21.1981 109.668 20.6451C109.144 20.0921 108.883 19.2924 108.883 18.2462V4.88393H112.201V18.8963H113.681V21.4746H112.179ZM124.145 21.4746C123.547 21.4746 123.046 21.2878 122.643 20.9141C122.254 20.5404 122.007 20.0397 121.903 19.412H121.768C121.589 20.1743 121.193 20.7572 120.58 21.1607C119.967 21.5493 119.212 21.7436 118.316 21.7436C117.135 21.7436 116.231 21.4298 115.603 20.802C114.975 20.1743 114.661 19.3447 114.661 18.3134C114.661 17.0728 115.11 16.1536 116.006 15.5558C116.918 14.943 118.151 14.6366 119.706 14.6366H121.567V13.8967C121.567 13.3287 121.417 12.8803 121.118 12.5515C120.819 12.2077 120.319 12.0359 119.616 12.0359C118.958 12.0359 118.435 12.1779 118.047 12.4618C117.658 12.7458 117.337 13.0672 117.083 13.4259L115.11 11.6771C115.588 10.9747 116.186 10.4291 116.903 10.0405C117.636 9.63694 118.622 9.43516 119.863 9.43516C121.537 9.43516 122.792 9.80135 123.629 10.5337C124.466 11.2661 124.885 12.3348 124.885 13.7398V18.8963H125.983V21.4746H124.145ZM119.549 19.4344C120.102 19.4344 120.573 19.3148 120.961 19.0757C121.365 18.8365 121.567 18.4479 121.567 17.9099V16.5198H119.952C118.652 16.5198 118.002 16.9607 118.002 17.8426V18.1789C118.002 18.6123 118.136 18.9337 118.405 19.1429C118.674 19.3373 119.056 19.4344 119.549 19.4344ZM138.882 22.3266C138.882 22.9543 138.77 23.5073 138.546 23.9856C138.337 24.4639 137.985 24.8675 137.492 25.1963C136.999 25.5401 136.341 25.7942 135.519 25.9586C134.712 26.1379 133.711 26.2276 132.515 26.2276C131.499 26.2276 130.632 26.1604 129.914 26.0258C129.212 25.9063 128.636 25.7269 128.188 25.4878C127.754 25.2636 127.433 24.9796 127.224 24.6358C127.03 24.307 126.932 23.9258 126.932 23.4924C126.932 22.8347 127.127 22.3191 127.515 21.9454C127.904 21.5718 128.442 21.3401 129.13 21.2504V21.0038C128.562 20.8992 128.136 20.66 127.852 20.2864C127.568 19.8977 127.426 19.4494 127.426 18.9412C127.426 18.6273 127.485 18.3583 127.605 18.1341C127.74 17.8949 127.904 17.6931 128.098 17.5287C128.308 17.3494 128.547 17.2074 128.816 17.1027C129.085 16.9981 129.354 16.9159 129.623 16.8561V16.7664C128.905 16.4376 128.375 15.9892 128.031 15.4213C127.687 14.8383 127.515 14.1657 127.515 13.4035C127.515 12.2077 127.926 11.2512 128.748 10.5337C129.585 9.80135 130.856 9.43516 132.56 9.43516C133.337 9.43516 134.002 9.50989 134.555 9.65936V9.21096C134.555 8.5832 134.705 8.13481 135.004 7.86577C135.317 7.58179 135.758 7.43979 136.326 7.43979H138.187V9.90598H135.586V10.0405C136.274 10.3693 136.782 10.8252 137.111 11.4081C137.44 11.9761 137.604 12.6412 137.604 13.4035C137.604 14.5842 137.186 15.5334 136.349 16.2508C135.527 16.9533 134.264 17.3045 132.56 17.3045C131.798 17.3045 131.103 17.2223 130.475 17.0579C130.131 17.2821 129.959 17.596 129.959 17.9995C129.959 18.2835 130.064 18.5077 130.273 18.6721C130.497 18.8216 130.863 18.8963 131.372 18.8963H134.779C136.214 18.8963 137.253 19.1953 137.896 19.7931C138.553 20.391 138.882 21.2355 138.882 22.3266ZM135.766 22.775C135.766 22.4312 135.631 22.1696 135.362 21.9903C135.093 21.8109 134.622 21.7212 133.95 21.7212H129.914C129.765 21.8707 129.653 22.0351 129.578 22.2145C129.518 22.4088 129.488 22.5956 129.488 22.775C129.488 23.2084 129.675 23.5223 130.049 23.7166C130.422 23.9258 131.058 24.0305 131.954 24.0305H133.3C134.196 24.0305 134.832 23.9258 135.205 23.7166C135.579 23.5223 135.766 23.2084 135.766 22.775ZM132.56 15.1298C133.217 15.1298 133.703 14.9953 134.017 14.7262C134.346 14.4423 134.51 14.0387 134.51 13.5156V13.2465C134.51 12.7234 134.346 12.3273 134.017 12.0583C133.703 11.7743 133.217 11.6323 132.56 11.6323C131.902 11.6323 131.409 11.7743 131.08 12.0583C130.766 12.3273 130.609 12.7234 130.609 13.2465V13.5156C130.609 14.0387 130.766 14.4423 131.08 14.7262C131.409 14.9953 131.902 15.1298 132.56 15.1298Z" fill="white"/>
<path d="M53.1033 42.9866C51.8901 42.9866 50.8744 42.7609 50.0562 42.3095C49.2521 41.8439 48.5609 41.2303 47.9825 40.4685L48.9347 39.6856C49.4567 40.3768 50.0421 40.9129 50.691 41.2938C51.3541 41.6746 52.1723 41.8651 53.1456 41.8651C54.2883 41.8651 55.1629 41.5971 55.7695 41.061C56.3902 40.5108 56.7006 39.749 56.7006 38.7757C56.7006 37.8728 56.4396 37.2098 55.9177 36.7866C55.3957 36.3634 54.6621 36.053 53.717 35.8555L52.405 35.5804C50.9943 35.2983 49.9716 34.8257 49.3368 34.1627C48.7019 33.4997 48.3845 32.6532 48.3845 31.6234C48.3845 30.9745 48.4974 30.4102 48.7231 29.9306C48.9488 29.4368 49.2662 29.0277 49.6753 28.7033C50.0985 28.3788 50.5993 28.132 51.1777 27.9627C51.7702 27.7934 52.4191 27.7087 53.1245 27.7087C54.2248 27.7087 55.1559 27.9062 55.9177 28.3012C56.6794 28.6962 57.3072 29.2535 57.8009 29.9729L56.8487 30.6712C56.4396 30.0787 55.9247 29.6273 55.304 29.3169C54.6974 28.9925 53.9497 28.8303 53.061 28.8303C52.003 28.8303 51.1636 29.063 50.5429 29.5285C49.9363 29.98 49.633 30.6642 49.633 31.5811C49.633 32.4557 49.9081 33.0976 50.4583 33.5067C51.0084 33.9158 51.742 34.2121 52.6589 34.3954L53.9709 34.6705C55.438 34.995 56.4678 35.4958 57.0603 36.1729C57.6528 36.8501 57.9491 37.6965 57.9491 38.7122C57.9491 40.0664 57.5188 41.1174 56.6583 41.8651C55.7977 42.6128 54.6128 42.9866 53.1033 42.9866ZM65.384 42.9866C64.6645 42.9866 64.0086 42.8596 63.4161 42.6057C62.8377 42.3518 62.3369 41.985 61.9137 41.5054C61.5046 41.0116 61.1872 40.4121 60.9614 39.7067C60.7498 39.0014 60.644 38.2043 60.644 37.3156C60.644 36.4269 60.7498 35.6369 60.9614 34.9456C61.1872 34.2403 61.5046 33.6478 61.9137 33.1681C62.3369 32.6744 62.8377 32.3006 63.4161 32.0466C63.9944 31.7786 64.6434 31.6446 65.3628 31.6446C66.0541 31.6446 66.6818 31.7786 67.2461 32.0466C67.8104 32.3006 68.29 32.6603 68.685 33.1258C69.08 33.5914 69.3833 34.1556 69.5949 34.8187C69.8206 35.4676 69.9335 36.187 69.9335 36.977V37.5484H61.9137V38.0774C61.9137 38.6416 61.9913 39.1636 62.1464 39.6432C62.3157 40.1088 62.5485 40.5108 62.8447 40.8494C63.1551 41.188 63.5289 41.456 63.9662 41.6535C64.4035 41.8369 64.8973 41.9286 65.4475 41.9286C67.0274 41.9286 68.1207 41.2021 68.7273 39.749L69.6161 40.3415C69.2775 41.1456 68.7414 41.7875 68.0079 42.2671C67.2884 42.7468 66.4138 42.9866 65.384 42.9866ZM65.3628 32.6603C64.8409 32.6603 64.3683 32.759 63.9451 32.9565C63.5219 33.1399 63.1551 33.4009 62.8447 33.7395C62.5485 34.078 62.3157 34.4871 62.1464 34.9668C61.9913 35.4323 61.9137 35.9472 61.9137 36.5115V36.6173H68.6215V36.448C68.6215 35.8837 68.5439 35.3688 68.3888 34.9033C68.2336 34.4237 68.0079 34.0216 67.7116 33.6972C67.4295 33.3727 67.0839 33.1188 66.6748 32.9354C66.2798 32.752 65.8425 32.6603 65.3628 32.6603ZM77.2332 42.9866C75.7378 42.9866 74.5811 42.4928 73.7629 41.5054C72.9588 40.5179 72.5567 39.1213 72.5567 37.3156C72.5567 35.5099 72.9588 34.1133 73.7629 33.1258C74.5811 32.1383 75.7378 31.6446 77.2332 31.6446C78.2348 31.6446 79.0459 31.8632 79.6666 32.3006C80.2873 32.7379 80.7599 33.3163 81.0844 34.0357L80.0687 34.5436C79.8147 33.9511 79.455 33.4997 78.9895 33.1893C78.5381 32.8789 77.9526 32.7238 77.2332 32.7238C76.1328 32.7238 75.2935 33.0764 74.7151 33.7818C74.1367 34.4871 73.8475 35.4111 73.8475 36.5538V38.0774C73.8475 39.22 74.1367 40.144 74.7151 40.8494C75.2935 41.5547 76.1328 41.9074 77.2332 41.9074C77.9808 41.9074 78.6086 41.7452 79.1165 41.4207C79.6243 41.0963 80.0334 40.6307 80.3438 40.0241L81.2325 40.6166C80.8798 41.3361 80.372 41.9145 79.7089 42.3518C79.06 42.775 78.2348 42.9866 77.2332 42.9866ZM91.1164 41.0187H91.0318C90.933 41.2726 90.799 41.5195 90.6297 41.7593C90.4604 41.9991 90.2488 42.2107 89.9949 42.3941C89.741 42.5634 89.4377 42.7045 89.085 42.8173C88.7464 42.9302 88.3444 42.9866 87.8789 42.9866C86.7221 42.9866 85.8192 42.6339 85.1703 41.9286C84.5214 41.2091 84.1969 40.1864 84.1969 38.8603V31.8985H85.4031V38.6275C85.4031 39.742 85.6429 40.5672 86.1225 41.1033C86.6022 41.6394 87.2934 41.9074 88.1963 41.9074C88.5772 41.9074 88.9369 41.858 89.2755 41.7593C89.6281 41.6605 89.9385 41.5124 90.2065 41.3149C90.4887 41.1174 90.7073 40.8705 90.8625 40.5743C91.0318 40.2639 91.1164 39.9042 91.1164 39.4951V31.8985H92.3226V42.7327H91.1164V41.0187ZM96.6917 42.7327V31.8985H97.8978V33.8453H97.9825C98.1941 33.3374 98.5538 32.886 99.0617 32.491C99.5695 32.096 100.289 31.8985 101.22 31.8985H101.939V33.0835H100.987C100.084 33.0835 99.3438 33.281 98.7654 33.676C98.187 34.071 97.8978 34.6212 97.8978 35.3265V42.7327H96.6917ZM105.271 28.9572C104.988 28.9572 104.777 28.8867 104.636 28.7456C104.509 28.6045 104.445 28.4211 104.445 28.1954V27.9838C104.445 27.7581 104.509 27.5747 104.636 27.4337C104.777 27.2926 104.988 27.2221 105.271 27.2221C105.553 27.2221 105.757 27.2926 105.884 27.4337C106.025 27.5747 106.096 27.7581 106.096 27.9838V28.1954C106.096 28.4211 106.025 28.6045 105.884 28.7456C105.757 28.8867 105.553 28.9572 105.271 28.9572ZM104.678 31.8985H105.884V42.7327H104.678V31.8985ZM112.109 42.7327C111.672 42.7327 111.34 42.6128 111.114 42.3729C110.889 42.1331 110.776 41.8087 110.776 41.3996V32.9565H108.893V31.8985H110.12C110.416 31.8985 110.614 31.8421 110.712 31.7292C110.825 31.6023 110.882 31.3836 110.882 31.0733V28.8726H111.982V31.8985H114.437V32.9565H111.982V41.6746H114.267V42.7327H112.109ZM124.316 31.8985H125.543L120.528 45.7798C120.359 46.2312 120.154 46.5415 119.914 46.7108C119.674 46.8801 119.279 46.9648 118.729 46.9648H117.502V45.9067H119.322L120.359 43.0501L116.338 31.8985H117.608L120.93 41.4419H121.015L124.316 31.8985Z" fill="white"/>
</svg>
